<mxfile host="app.diagrams.net" modified="2022-03-16T11:30:26.821Z" agent="5.0 (Windows NT 10.0; Win64; x64) AppleWebKit/537.36 (KHTML, like Gecko) Chrome/99.0.4844.51 Safari/537.36" etag="NWXjAhA1azil7LnCxdfw" version="16.6.1" type="github" pages="6">
  <diagram id="rgGwAm4Qy3iQoU-0-GGe" name="Front Page">
    <mxGraphModel dx="782" dy="402" grid="1" gridSize="10" guides="1" tooltips="1" connect="1" arrows="1" fold="1" page="1" pageScale="1" pageWidth="827" pageHeight="1169" math="0" shadow="0">
      <root>
        <mxCell id="0" />
        <mxCell id="1" parent="0" />
        <mxCell id="rngdNth7poIb3nnxzFab-1" value="Front Page for alle diagrammer" style="text;html=1;strokeColor=none;fillColor=none;align=center;verticalAlign=middle;whiteSpace=wrap;rounded=0;fontSize=26;" parent="1" vertex="1">
          <mxGeometry x="240" y="40" width="400" height="110" as="geometry" />
        </mxCell>
        <mxCell id="rngdNth7poIb3nnxzFab-2" value="Klik på fanerne nede i bunden for at komme til den ønskede side&amp;nbsp;" style="text;html=1;strokeColor=none;fillColor=none;align=center;verticalAlign=middle;whiteSpace=wrap;rounded=0;fontSize=25;" parent="1" vertex="1">
          <mxGeometry x="270" y="160" width="320" height="170" as="geometry" />
        </mxCell>
      </root>
    </mxGraphModel>
  </diagram>
  <diagram id="CE823i45pRKfuJg5CgAG" name="Use Case">
    <mxGraphModel dx="782" dy="402" grid="1" gridSize="10" guides="1" tooltips="1" connect="1" arrows="1" fold="1" page="1" pageScale="1" pageWidth="827" pageHeight="1169" math="0" shadow="0">
      <root>
        <mxCell id="Q6QkYNzc6LRX6bO38b53-0" />
        <mxCell id="Q6QkYNzc6LRX6bO38b53-1" parent="Q6QkYNzc6LRX6bO38b53-0" />
        <mxCell id="_axnYymKnWExEJfuMjxt-0" value="" style="rounded=0;whiteSpace=wrap;html=1;" vertex="1" parent="Q6QkYNzc6LRX6bO38b53-1">
          <mxGeometry x="200" y="80" width="480" height="400" as="geometry" />
        </mxCell>
        <mxCell id="_axnYymKnWExEJfuMjxt-1" value="Actor" style="shape=umlActor;verticalLabelPosition=bottom;verticalAlign=top;html=1;outlineConnect=0;" vertex="1" parent="Q6QkYNzc6LRX6bO38b53-1">
          <mxGeometry x="120" y="200" width="40" height="80" as="geometry" />
        </mxCell>
        <mxCell id="_axnYymKnWExEJfuMjxt-2" value="Actor" style="shape=umlActor;verticalLabelPosition=bottom;verticalAlign=top;html=1;outlineConnect=0;" vertex="1" parent="Q6QkYNzc6LRX6bO38b53-1">
          <mxGeometry x="720" y="200" width="40" height="80" as="geometry" />
        </mxCell>
        <mxCell id="_axnYymKnWExEJfuMjxt-3" value="Log-in side&amp;nbsp;" style="ellipse;whiteSpace=wrap;html=1;" vertex="1" parent="Q6QkYNzc6LRX6bO38b53-1">
          <mxGeometry x="230" y="200" width="120" height="80" as="geometry" />
        </mxCell>
        <mxCell id="_axnYymKnWExEJfuMjxt-4" value="StartSide" style="ellipse;whiteSpace=wrap;html=1;" vertex="1" parent="Q6QkYNzc6LRX6bO38b53-1">
          <mxGeometry x="230" y="300" width="120" height="80" as="geometry" />
        </mxCell>
      </root>
    </mxGraphModel>
  </diagram>
  <diagram id="L8LL3GJ-aT47A1PR6D_T" name="Mcok-UP">
    <mxGraphModel dx="782" dy="402" grid="1" gridSize="10" guides="1" tooltips="1" connect="1" arrows="1" fold="1" page="1" pageScale="1" pageWidth="827" pageHeight="1169" math="0" shadow="0">
      <root>
        <mxCell id="UHWbv6BwneqTv3x_pqK9-0" />
        <mxCell id="UHWbv6BwneqTv3x_pqK9-1" parent="UHWbv6BwneqTv3x_pqK9-0" />
        <mxCell id="gw0nvjAS-S7q2EVU0m9d-1" value="" style="rounded=0;whiteSpace=wrap;html=1;fontSize=25;" parent="UHWbv6BwneqTv3x_pqK9-1" vertex="1">
          <mxGeometry x="40" y="40" width="850" height="160" as="geometry" />
        </mxCell>
        <mxCell id="gw0nvjAS-S7q2EVU0m9d-2" value="Startside" style="rounded=0;whiteSpace=wrap;html=1;fontSize=25;fillColor=#dae8fc;strokeColor=#6c8ebf;" parent="UHWbv6BwneqTv3x_pqK9-1" vertex="1">
          <mxGeometry x="40" y="80" width="120" height="80" as="geometry" />
        </mxCell>
        <mxCell id="gw0nvjAS-S7q2EVU0m9d-3" value="Fag" style="rounded=0;whiteSpace=wrap;html=1;fontSize=25;fillColor=#d5e8d4;strokeColor=#82b366;" parent="UHWbv6BwneqTv3x_pqK9-1" vertex="1">
          <mxGeometry x="160" y="80" width="90" height="80" as="geometry" />
        </mxCell>
        <mxCell id="gw0nvjAS-S7q2EVU0m9d-4" value="Studie+" style="rounded=0;whiteSpace=wrap;html=1;fontSize=25;fillColor=#ffe6cc;strokeColor=#d79b00;" parent="UHWbv6BwneqTv3x_pqK9-1" vertex="1">
          <mxGeometry x="250" y="80" width="110" height="80" as="geometry" />
        </mxCell>
        <mxCell id="gw0nvjAS-S7q2EVU0m9d-5" value="Lærepladsen" style="rounded=0;whiteSpace=wrap;html=1;fontSize=25;fillColor=#fff2cc;strokeColor=#d6b656;" parent="UHWbv6BwneqTv3x_pqK9-1" vertex="1">
          <mxGeometry x="360" y="80" width="160" height="80" as="geometry" />
        </mxCell>
        <mxCell id="gw0nvjAS-S7q2EVU0m9d-6" value="Beskeder" style="rounded=0;whiteSpace=wrap;html=1;fontSize=25;fillColor=#e1d5e7;strokeColor=#9673a6;" parent="UHWbv6BwneqTv3x_pqK9-1" vertex="1">
          <mxGeometry x="680" y="80" width="120" height="80" as="geometry" />
        </mxCell>
        <mxCell id="gw0nvjAS-S7q2EVU0m9d-7" value="Notifikationer" style="rounded=0;whiteSpace=wrap;html=1;fontSize=25;fillColor=#f8cecc;strokeColor=#b85450;" parent="UHWbv6BwneqTv3x_pqK9-1" vertex="1">
          <mxGeometry x="520" y="80" width="160" height="80" as="geometry" />
        </mxCell>
        <mxCell id="gw0nvjAS-S7q2EVU0m9d-8" value="Profil" style="rounded=0;whiteSpace=wrap;html=1;fontSize=25;fillColor=#dae8fc;strokeColor=#6c8ebf;" parent="UHWbv6BwneqTv3x_pqK9-1" vertex="1">
          <mxGeometry x="800" y="80" width="90" height="80" as="geometry" />
        </mxCell>
      </root>
    </mxGraphModel>
  </diagram>
  <diagram id="Au3T5Ps_UAJKpwHn-Vm3" name="FlowCharts">
    <mxGraphModel dx="782" dy="402" grid="1" gridSize="10" guides="1" tooltips="1" connect="1" arrows="1" fold="1" page="1" pageScale="1" pageWidth="827" pageHeight="1169" math="0" shadow="0">
      <root>
        <mxCell id="a2bdf_1y801nPk8ID5Pm-0" />
        <mxCell id="a2bdf_1y801nPk8ID5Pm-1" parent="a2bdf_1y801nPk8ID5Pm-0" />
        <mxCell id="9I6bP339Pm3XUR7TdEOH-0" value="StartSide Loader" style="rounded=1;whiteSpace=wrap;html=1;fillColor=none;" vertex="1" parent="a2bdf_1y801nPk8ID5Pm-1">
          <mxGeometry x="335" y="170" width="90" height="80" as="geometry" />
        </mxCell>
        <mxCell id="9I6bP339Pm3XUR7TdEOH-1" value="Start" style="strokeWidth=2;html=1;shape=mxgraph.flowchart.start_1;whiteSpace=wrap;" vertex="1" parent="a2bdf_1y801nPk8ID5Pm-1">
          <mxGeometry x="330" y="80" width="100" height="60" as="geometry" />
        </mxCell>
      </root>
    </mxGraphModel>
  </diagram>
  <diagram id="VOhB2fTmpUuv1bA_Xetb" name="ER Diagram">
    <mxGraphModel dx="782" dy="402" grid="1" gridSize="10" guides="1" tooltips="1" connect="1" arrows="1" fold="1" page="1" pageScale="1" pageWidth="827" pageHeight="1169" math="0" shadow="0">
      <root>
        <mxCell id="I1ezTAsD_li1NanMW5sc-0" />
        <mxCell id="I1ezTAsD_li1NanMW5sc-1" parent="I1ezTAsD_li1NanMW5sc-0" />
      </root>
    </mxGraphModel>
  </diagram>
  <diagram id="ogVKLkOtO8G5pyjpDtLu" name="DB Diagram">
    <mxGraphModel dx="782" dy="402" grid="1" gridSize="10" guides="1" tooltips="1" connect="1" arrows="1" fold="1" page="1" pageScale="1" pageWidth="827" pageHeight="1169" math="0" shadow="0">
      <root>
        <mxCell id="1fHdku_7Ru47f_w3Mn6r-0" />
        <mxCell id="1fHdku_7Ru47f_w3Mn6r-1" parent="1fHdku_7Ru47f_w3Mn6r-0" />
      </root>
    </mxGraphModel>
  </diagram>
</mxfile>
